<?xml version="1.0" ?><svg viewBox="0 0 64 64" xmlns="http://www.w3.org/2000/svg"><title/><g data-name="20-World" id="_20-World"><polyline points="20.25 7.667 16.75 1 20.25 1 28.125 7.667" style="fill:none;stroke:#000;stroke-linejoin:round;stroke-width:2px"/><path d="M36.875,7C31.625,7,8,8.5,8,8.5L3.625,4H1l1.263,6.493A3.387,3.387,0,0,0,5.715,13H22.788l-6.534,8h4.667l11.2-8H39.5C43,13,43,10.75,43,10.75S42.125,7,36.875,7Z" style="fill:none;stroke:#000;stroke-linejoin:round;stroke-width:2px"/><polyline points="37 7 37 10 43 10" style="fill:none;stroke:#000;stroke-linejoin:round;stroke-width:2px"/><polygon points="35 33 40 33 40 31 37 31 35 27 33 27 29 31 28 31 28 28 33 23 35 23 38 22 37 20 33 20 35 17 40 17 41 19 45 19 49 18 53 18 53 19 58 23 59 26 58 27 58 28 59 29 59 32 57 32 57 34 56 37 55 37 57 39 57 40 55 40 55 44 53 44 53 40 52 36 49 39 48 39 48 35 44 34 45 36 45 39 42 39 41 36 39 36 39 42 44 42 44 44 41 46 42 48 42 49 39 54 35 54 34 49 34 46 33 44 33 43 28 43 26 41 26 37 32 32 34 32 35 33" style="fill:none;stroke:#000;stroke-linejoin:round;stroke-width:2px"/><polyline points="58 49 55 47 52 49 52 56" style="fill:none;stroke:#000;stroke-linejoin:round;stroke-width:2px"/><polyline points="17 23 17 25 14 26 14 28 13 29 12 30 12 32 9 32 9 34 11 34 12 37 13 37 16 37 18 40 21 43 20 45 20 47 17 51 15 51 14 45 12 44 12 40 9 36 6 34 6 25 4 25 4 23 8 19 12.8 15" style="fill:none;stroke:#000;stroke-linejoin:round;stroke-width:2px"/><path d="M25,1.794A31,31,0,1,1,5.443,16" style="fill:none;stroke:#000;stroke-linejoin:round;stroke-width:2px"/></g></svg>